<?xml version="1.0" standalone="no"?>
<!DOCTYPE svg PUBLIC "-//W3C//DTD SVG 20010904//EN"
 "http://www.w3.org/TR/2001/REC-SVG-20010904/DTD/svg10.dtd">
<svg version="1.0" xmlns="http://www.w3.org/2000/svg"
 width="700.000000pt" height="700.000000pt" viewBox="0 0 700.000000 700.000000"
 preserveAspectRatio="xMidYMid meet">
<metadata>
Created by potrace 1.11, written by Peter Selinger 2001-2013
</metadata>
<g transform="translate(0.000000,700.000000) scale(0.100000,-0.100000)"
fill="#000000" stroke="none">
<path d="M2820 6390 l0 -610 -47 0 c-43 0 -50 -4 -70 -33 -50 -72 -57 -105
-58 -239 l0 -126 68 -70 c37 -39 67 -76 67 -83 0 -9 -123 -366 -157 -456 -11
-28 -248 84 -431 204 l-114 74 -141 -31 c-78 -17 -151 -32 -162 -35 -20 -4
-20 0 -20 248 0 161 -5 287 -14 349 l-13 97 46 52 c25 28 49 62 52 74 4 15 -8
52 -34 108 -140 298 -340 440 -621 438 -186 -1 -351 -64 -475 -181 -99 -94
-141 -168 -156 -276 -16 -115 -7 -207 42 -394 22 -85 42 -165 45 -177 6 -24 9
-25 130 -3 l41 7 42 -56 c22 -31 55 -85 72 -119 27 -55 32 -74 31 -140 0 -43
-8 -120 -18 -172 -20 -106 -42 -146 -203 -365 -108 -147 -156 -232 -223 -400
-31 -77 -90 -212 -132 -300 -91 -193 -104 -230 -156 -455 -49 -214 -77 -366
-96 -530 l-15 -125 52 -48 c124 -115 365 -251 698 -397 329 -144 375 -169 545
-298 88 -67 173 -132 188 -144 l28 -23 -1 -878 0 -877 75 0 75 0 0 838 0 837
58 35 c112 67 152 101 179 153 l25 50 51 -59 c81 -94 217 -222 281 -265 107
-71 163 -92 241 -91 98 1 280 44 465 109 311 110 368 123 545 123 44 0 166 7
270 15 105 8 265 18 356 21 l167 7 7 71 c4 39 11 143 14 231 l6 159 80 12 c44
7 92 15 107 18 23 5 30 -1 60 -47 57 -89 222 -289 301 -364 90 -86 150 -118
323 -173 214 -69 269 -90 332 -128 33 -21 150 -121 259 -223 247 -232 323
-300 444 -399 l96 -79 55 44 c46 36 69 67 143 196 49 85 126 216 172 292 46
76 88 157 93 180 13 56 12 336 -1 417 -12 79 -29 107 -77 127 -32 13 -49 14
-118 3 l-82 -12 -16 -89 c-22 -119 -56 -224 -90 -278 l-28 -44 -97 6 c-97 6
-213 31 -240 51 -8 6 -111 121 -230 256 -119 135 -334 377 -478 537 -219 244
-273 311 -324 398 -71 121 -124 186 -182 219 -107 62 -392 60 -657 -3 -41 -10
-231 -62 -422 -115 -400 -112 -500 -133 -653 -142 l-111 -7 -48 54 c-89 98
-212 301 -348 569 -117 231 -199 428 -198 477 0 8 13 6 43 -7 60 -28 69 -25
96 25 13 24 32 47 41 50 12 4 82 -26 187 -79 92 -47 179 -87 193 -88 23 -3 26
3 48 77 34 117 59 284 77 505 15 186 29 316 42 388 5 28 13 37 47 52 22 9 50
27 60 39 19 21 19 23 2 77 -10 31 -48 124 -85 207 -38 84 -81 190 -96 237 -48
147 -90 216 -149 244 l-36 17 0 634 0 635 -70 0 -70 0 0 -610z m67 -1585 c-4
-170 -22 -336 -36 -334 -3 0 -30 30 -60 65 l-54 66 7 56 c4 31 23 102 42 157
20 55 47 136 62 180 l26 80 9 -45 c4 -25 6 -126 4 -225z m-1822 -1450 c9 -33
35 -94 57 -135 59 -109 294 -489 420 -679 60 -90 107 -165 105 -167 -2 -2 -35
10 -72 27 -83 37 -156 47 -205 27 l-35 -14 -150 121 c-82 66 -243 191 -357
278 l-207 157 77 78 c60 60 89 100 130 180 30 56 58 102 64 102 6 0 26 -9 44
-21 19 -11 38 -18 42 -15 5 3 20 42 32 87 19 67 25 78 31 58 3 -13 14 -51 24
-84z"/>
</g>
</svg>
