<?xml version="1.0" encoding="utf-8"?>
<!-- Generator: Adobe Illustrator 22.0.0, SVG Export Plug-In . SVG Version: 6.00 Build 0)  -->
<svg version="1.1" id="Layer_1" xmlns="http://www.w3.org/2000/svg" xmlns:xlink="http://www.w3.org/1999/xlink" x="0px" y="0px"
	 viewBox="0 0 32 32" style="enable-background:new 0 0 32 32;" xml:space="preserve">
<style type="text/css">
	.st0{fill:#FFFFFF;}
</style>
<g>
	<path class="st0" d="M11.2,13.3L11.2,13.3c-0.5,0-0.8,0.5-0.7,1l0.8,7.2c0,0.5,0.4,0.9,0.8,0.8c0.4-0.1,0.7-0.5,0.7-1L12,14.1
		C12,13.6,11.6,13.2,11.2,13.3z"/>
	<path class="st0" d="M15.4,13.3L15.4,13.3c-0.5,0-0.8,0.5-0.8,1l0.5,7.2c0,0.5,0.4,0.8,0.8,0.8c0.4,0,0.7-0.5,0.7-1l-0.5-7.2
		C16.2,13.6,15.8,13.3,15.4,13.3z"/>
	<path class="st0" d="M19.5,13.3L19.5,13.3c-0.5,0-0.8,0.4-0.8,0.9l-0.1,7.2c0,0.5,0.4,0.9,0.8,0.9h0.1c0.5,0,0.8-0.4,0.8-0.9
		l0.1-7.2C20.3,13.7,19.9,13.3,19.5,13.3z"/>
	<path class="st0" d="M24,13.3L24,13.3c-0.5,0-0.8,0.3-0.9,0.8l-1,7.1c-0.1,0.6,0.2,1,0.6,1.1h0.1c0.4,0,0.8-0.3,0.8-0.8l1-7.1
		C24.7,13.9,24.3,13.4,24,13.3z"/>
</g>
<path class="st0" d="M24.8,0.5H7.2C3.7,0.6,0.6,3.7,0.5,7.2v17.7c0.1,3.5,3.2,6.5,6.7,6.7h17.7c3.5-0.1,6.5-3.2,6.7-6.7V7.2
	C31.4,3.7,28.3,0.6,24.8,0.5z M25.4,22.2c0,1.6-1,2.7-2.1,2.7H11.6c-1.1,0-2.1-1.3-2.1-2.7l-1.5-9.1l-0.5-2.8H4.8
	C2,10.9,2,7.1,3.3,7.1h5.3c0.7,0.1,1,0.5,1.1,1.1l0.4,2.3h0.1h14.6c1.1,0,2.1,1.2,2.1,2.6L25.4,22.2z"/>
</svg>
