<?xml version="1.0" encoding="utf-8"?>
<!-- Generator: Adobe Illustrator 23.0.0, SVG Export Plug-In . SVG Version: 6.00 Build 0)  -->
<svg version="1.1" id="Layer_1" xmlns="http://www.w3.org/2000/svg" xmlns:xlink="http://www.w3.org/1999/xlink" x="0px" y="0px"
	 viewBox="0 0 32 32" style="enable-background:new 0 0 32 32;" xml:space="preserve">
<style type="text/css">
	.st0{fill:#FFFFFF;}
</style>
<g>
	<path class="st0" d="M29.2,10.9H10.1c0,0-0.1,0-0.1,0L9.5,8.5c-0.1-0.6-0.5-1-1.4-1.1h-7c-1.6,0-1.6,3.9,2,3.4l3.5,0l0.6,2.9v0
		L9.2,23c0,1.5,1.3,2.8,2.8,2.8h15.3c1.5,0,2.8-1.2,2.8-2.8l1.9-9.4C32,12.1,30.7,10.9,29.2,10.9z M12.8,23L12.8,23
		c-0.6,0.1-1.1-0.3-1.1-0.8l-1.1-7.4c-0.1-0.5,0.3-1,0.8-1l0.1,0c0.5-0.1,1,0.3,1.1,0.8l1.1,7.4C13.7,22.5,13.3,22.9,12.8,23z
		 M17.7,23L17.7,23c-0.6,0-1.1-0.3-1.1-0.8L16,14.8c0-0.5,0.4-1,0.9-1l0.1,0c0.5,0,1,0.3,1,0.8l0.6,7.4C18.6,22.5,18.2,23,17.7,23z
		 M23.3,22.1c0,0.5-0.4,0.9-1,0.9h-0.1c-0.5,0-1-0.4-1-0.9l0.1-7.4c0-0.5,0.4-0.9,1-0.9h0.1c0.5,0,1,0.4,1,0.9L23.3,22.1z M29,14.9
		l-1.3,7.3c-0.1,0.5-0.6,0.8-1.1,0.8l-0.1,0c-0.5-0.1-0.9-0.5-0.8-1.1l1.3-7.3c0.1-0.5,0.6-0.8,1.1-0.8l0.1,0
		C28.7,13.9,29.1,14.4,29,14.9z"/>
</g>
</svg>
