<?xml version="1.0" encoding="utf-8"?>
<!-- Generator: Adobe Illustrator 22.0.0, SVG Export Plug-In . SVG Version: 6.00 Build 0)  -->
<svg version="1.1" id="Layer_1" xmlns="http://www.w3.org/2000/svg" xmlns:xlink="http://www.w3.org/1999/xlink" x="0px" y="0px"
	 viewBox="0 0 32 32" style="enable-background:new 0 0 32 32;" xml:space="preserve">
<style type="text/css">
	.st0{fill:#FBF645;}
	.st1{fill:#FFFFFF;}
</style>
<path class="st0" d="M28,5.9l-1.5-1c-0.4-0.3-1-0.2-1.2,0.2l-7.2,10.6l-3.3-3.3c-0.3-0.3-0.9-0.3-1.3,0l-1.3,1.3
	c-0.3,0.3-0.3,0.9,0,1.3l5.1,5.1c0.3,0.3,0.7,0.5,1.1,0.5s0.8-0.3,1.1-0.6l8.7-12.8C28.5,6.7,28.4,6.2,28,5.9z"/>
<g>
	<path class="st1" d="M27.2,14.5H10.7h-0.1l-0.4-2.1c-0.1-0.5-0.4-0.9-1.2-1H2.9c-1.4,0-1.4,3.4,1.7,2.9h3L8.2,17l0,0l1.7,8
		c0,1.3,1.1,2.4,2.4,2.4h13.2c1.3,0,2.4-1,2.4-2.4l1.6-8.1C29.6,15.6,28.5,14.5,27.2,14.5z M13,25L13,25c-0.5,0.1-1-0.3-1-0.7
		l-1-6.4C11,17.5,11.4,17,11.8,17h0.1c0.4-0.1,0.9,0.3,1,0.7l1,6.4C13.8,24.6,13.4,24.9,13,25z M17.2,25L17.2,25c-0.5,0-1-0.3-1-0.7
		l-0.5-6.4c0-0.4,0.3-0.9,0.8-0.9h0.1c0.4,0,0.9,0.3,0.9,0.7l0.5,6.4C18,24.6,17.7,25,17.2,25z M22.1,24.2c0,0.4-0.3,0.8-0.9,0.8
		h-0.1c-0.4,0-0.9-0.3-0.9-0.8l0.1-6.4c0-0.4,0.3-0.8,0.9-0.8h0.1c0.4,0,0.9,0.3,0.9,0.8L22.1,24.2z M27,18l-1.1,6.3
		c-0.1,0.4-0.5,0.7-1,0.7h-0.1c-0.4-0.1-0.8-0.4-0.7-1l1.1-6.3c0.1-0.4,0.5-0.7,1-0.7h0.1C26.8,17.1,27.1,17.6,27,18z"/>
</g>
</svg>
