<?xml version="1.0" encoding="utf-8"?>
<!-- Generator: Adobe Illustrator 23.0.0, SVG Export Plug-In . SVG Version: 6.00 Build 0)  -->
<svg version="1.1" id="Слой_1" xmlns="http://www.w3.org/2000/svg" xmlns:xlink="http://www.w3.org/1999/xlink" x="0px" y="0px"
	 viewBox="0 0 450 450" style="enable-background:new 0 0 450 450;" xml:space="preserve">
<style type="text/css">
	.st0{filter:url(#Adobe_OpacityMaskFilter);}
	.st1{fill:url(#SVGID_2_);}
	.st2{mask:url(#SVGID_1_);}
	.st3{fill:#FAFAFA;}
</style>
<defs>
	<filter id="Adobe_OpacityMaskFilter" filterUnits="userSpaceOnUse" x="168.9" y="-0.05" width="225.84" height="450.11">
		<feColorMatrix  type="matrix" values="1 0 0 0 0  0 1 0 0 0  0 0 1 0 0  0 0 0 1 0"/>
	</filter>
</defs>
<mask maskUnits="userSpaceOnUse" x="168.9" y="-0.05" width="225.84" height="450.11" id="SVGID_1_">
	<g class="st0">
		<g>
			<linearGradient id="SVGID_2_" gradientUnits="userSpaceOnUse" x1="281.8177" y1="450.0531" x2="281.8177" y2="-0.0531">
				<stop  offset="0" style="stop-color:#000000"/>
				<stop  offset="3.746318e-03" style="stop-color:#090909"/>
				<stop  offset="0.0242" style="stop-color:#373737"/>
				<stop  offset="0.0473" style="stop-color:#626262"/>
				<stop  offset="0.072" style="stop-color:#888888"/>
				<stop  offset="0.099" style="stop-color:#A8A8A8"/>
				<stop  offset="0.1288" style="stop-color:#C4C4C4"/>
				<stop  offset="0.1624" style="stop-color:#DADADA"/>
				<stop  offset="0.2017" style="stop-color:#EBEBEB"/>
				<stop  offset="0.2503" style="stop-color:#F6F6F6"/>
				<stop  offset="0.3185" style="stop-color:#FDFDFD"/>
				<stop  offset="0.5076" style="stop-color:#FFFFFF"/>
				<stop  offset="0.6911" style="stop-color:#FDFDFD"/>
				<stop  offset="0.7572" style="stop-color:#F6F6F6"/>
				<stop  offset="0.8043" style="stop-color:#EBEBEB"/>
				<stop  offset="0.8424" style="stop-color:#DADADA"/>
				<stop  offset="0.8751" style="stop-color:#C4C4C4"/>
				<stop  offset="0.904" style="stop-color:#A8A8A8"/>
				<stop  offset="0.9301" style="stop-color:#888888"/>
				<stop  offset="0.9542" style="stop-color:#626262"/>
				<stop  offset="0.9765" style="stop-color:#373737"/>
				<stop  offset="0.9964" style="stop-color:#090909"/>
				<stop  offset="1" style="stop-color:#000000"/>
			</linearGradient>
			<path class="st1" d="M394.74,340.64c-0.18-3.61,0.35-7.42-1.01-10.84c-2.24-2.59-5.81-1.51-8.62-0.84
				c-0.79,4.64-1.36,9.71-4.44,13.49c-2.19,0.01-4.37-0.22-6.55-0.41c-1.51-0.49-3.06-0.91-4.59-1.28
				c-10.42-11.98-21.01-23.81-31.65-35.57c-3.25-4.16-4.7-10.25-10.15-12.23c-10.21-2.23-20.58,0.66-30.33,3.63
				c-9.69,2.39-19.29,6.29-29.42,5.96c-3.43-3.38-5.98-7.49-8.47-11.55c-4.08-8.31-9.38-16.33-11.43-25.4
				c1.24,0.68,2.54,1.18,3.89,1.5c1-1.05,1.18-3.48,2.9-3.49c2.62,1.05,5,2.63,7.49,3.98c1.72,0.75,3.47,1.4,5.18,2.2
				c4.04-10.81,2.95-22.61,5.04-33.79c1.45-0.66,3.34-0.95,3.97-2.64c-1.41-5.93-5.09-11.03-6.67-16.91
				c-0.88-3.3-2.36-7.11-5.92-8.26c-0.04-48.75,0.24-97.51,0.18-146.26c-0.04-20.62-0.08-41.25-0.11-61.87c-0.16,0-0.33,0-0.49,0
				c-0.45-0.02-0.91-0.06-1.36-0.09h-2.74c0.09,68.86,0.07,137.73-0.24,206.6c-0.73-0.05-2.2-0.13-2.93-0.18
				c-3.54,3.76-3.31,8.85-2.78,13.66c1.62,1.46,3.14,3.04,4.6,4.67c-1.98,5.17-3.65,10.47-5.54,15.68
				c-6.58-1.98-12.34-5.81-17.98-9.63c-3.6,0.89-7.25,1.57-10.89,2.29c0.38-7.63,0.85-15.47-0.86-22.97
				c1.17-1.57,2.78-2.82,3.69-4.55c-1.45-4.76-4.27-9.12-7.67-12.72c-10.27-9.66-29.36-5.76-34.88,7.24
				c-2.08,7.55,0.61,15.18,2.7,22.4c1.8-0.24,3.59-0.54,5.38-0.83c1.3,1.7,2.67,3.38,3.7,5.26c2.51,4.28,0.63,9.41-0.05,13.94
				c-4.2,7.52-11.02,13.67-13.44,22.14c-2.06,6.21-5.84,11.66-7.89,17.89c-2.43,9.6-4.73,19.33-5.48,29.22
				c6.88,6.73,15.8,10.63,24.44,14.54c5.62,2.59,11.73,4.44,16.54,8.5c2.93,2.4,6.12,4.45,8.99,6.9c0.52,2.19,0.26,4.48,0.32,6.72
				c-0.05,34.44-0.03,68.88-0.02,103.31c1.56,0.01,3.13,0.02,4.69,0.03c-0.01-35.71-0.01-71.41,0.02-107.12
				c2.46-1.33,4.8-2.86,7.01-4.56c0.6-1.18,1.23-2.35,1.85-3.49c2.85,3.97,6.58,7.17,10.19,10.43c2.64,1.48,5.22,3.57,8.4,3.57
				c3.7-0.11,7.29-1.18,10.88-2.01c3.63-1.22,7.27-2.4,10.82-3.81c5.84-2.58,12.4-1.76,18.61-2.3c6.6-0.62,13.23-1.12,19.88-0.96
				c0.77-5.16,1.02-10.36,0.91-15.56c2.39-0.27,4.77-0.58,7.12-1.05c3.32,5.09,7.21,9.86,11.44,14.22
				c6.91,6.65,17.94,5.22,24.78,11.99c7.63,7.05,14.95,14.5,23.25,20.8c1.76-1.25,3.64-2.51,4.63-4.52c3.16-5.7,6.5-11.27,9.9-16.82
				C395.21,346.45,394.52,343.36,394.74,340.64z M261.01,229.8c1.41,6.73,0.55,13.79-0.61,20.52c-1.23-1.59-2.51-3.13-3.83-4.63
				C256.46,240.15,259.92,235.19,261.01,229.8z M209.89,318.35c-7.73-6.55-15.9-12.55-23.93-18.7c4.6-2.6,6.72-7.56,9.06-12.01
				c1.01,0.63,2.06,1.23,3.12,1.8c0.66-2.14,1.35-4.25,1.95-6.39c0.32,5.89,4.07,10.56,6.85,15.49c4.35,7.33,8.99,14.47,13.79,21.52
				C217.22,318.4,213.76,316.14,209.89,318.35z"/>
		</g>
	</g>
</mask>
<g class="st2">
	<path class="st3" d="M394.74,340.64c-0.18-3.61,0.35-7.42-1.01-10.84c-2.24-2.59-5.81-1.51-8.62-0.84
		c-0.79,4.64-1.36,9.71-4.44,13.49c-2.19,0.01-4.37-0.22-6.55-0.41c-1.51-0.49-3.06-0.91-4.59-1.28
		c-10.42-11.98-21.01-23.81-31.65-35.57c-3.25-4.16-4.7-10.25-10.15-12.23c-10.21-2.23-20.58,0.66-30.33,3.63
		c-9.69,2.39-19.29,6.29-29.42,5.96c-3.43-3.38-5.98-7.49-8.47-11.55c-4.08-8.31-9.38-16.33-11.43-25.4
		c1.24,0.68,2.54,1.18,3.89,1.5c1-1.05,1.18-3.48,2.9-3.49c2.62,1.05,5,2.63,7.49,3.98c1.72,0.75,3.47,1.4,5.18,2.2
		c4.04-10.81,2.95-22.61,5.04-33.79c1.45-0.66,3.34-0.95,3.97-2.64c-1.41-5.93-5.09-11.03-6.67-16.91c-0.88-3.3-2.36-7.11-5.92-8.26
		c-0.04-48.75,0.24-97.51,0.18-146.26c-0.04-20.62-0.08-41.25-0.11-61.87c-0.16,0-0.33,0-0.49,0c-0.45-0.02-0.91-0.06-1.36-0.09
		h-2.74c0.09,68.86,0.07,137.73-0.24,206.6c-0.73-0.05-2.2-0.13-2.93-0.18c-3.54,3.76-3.31,8.85-2.78,13.66
		c1.62,1.46,3.14,3.04,4.6,4.67c-1.98,5.17-3.65,10.47-5.54,15.68c-6.58-1.98-12.34-5.81-17.98-9.63c-3.6,0.89-7.25,1.57-10.89,2.29
		c0.38-7.63,0.85-15.47-0.86-22.97c1.17-1.57,2.78-2.82,3.69-4.55c-1.45-4.76-4.27-9.12-7.67-12.72
		c-10.27-9.66-29.36-5.76-34.88,7.24c-2.08,7.55,0.61,15.18,2.7,22.4c1.8-0.24,3.59-0.54,5.38-0.83c1.3,1.7,2.67,3.38,3.7,5.26
		c2.51,4.28,0.63,9.41-0.05,13.94c-4.2,7.52-11.02,13.67-13.44,22.14c-2.06,6.21-5.84,11.66-7.89,17.89
		c-2.43,9.6-4.73,19.33-5.48,29.22c6.88,6.73,15.8,10.63,24.44,14.54c5.62,2.59,11.73,4.44,16.54,8.5c2.93,2.4,6.12,4.45,8.99,6.9
		c0.52,2.19,0.26,4.48,0.32,6.72c-0.05,34.44-0.03,68.88-0.02,103.31c1.56,0.01,3.13,0.02,4.69,0.03
		c-0.01-35.71-0.01-71.41,0.02-107.12c2.46-1.33,4.8-2.86,7.01-4.56c0.6-1.18,1.23-2.35,1.85-3.49c2.85,3.97,6.58,7.17,10.19,10.43
		c2.64,1.48,5.22,3.57,8.4,3.57c3.7-0.11,7.29-1.18,10.88-2.01c3.63-1.22,7.27-2.4,10.82-3.81c5.84-2.58,12.4-1.76,18.61-2.3
		c6.6-0.62,13.23-1.12,19.88-0.96c0.77-5.16,1.02-10.36,0.91-15.56c2.39-0.27,4.77-0.58,7.12-1.05c3.32,5.09,7.21,9.86,11.44,14.22
		c6.91,6.65,17.94,5.22,24.78,11.99c7.63,7.05,14.95,14.5,23.25,20.8c1.76-1.25,3.64-2.51,4.63-4.52c3.16-5.7,6.5-11.27,9.9-16.82
		C395.21,346.45,394.52,343.36,394.74,340.64z M261.01,229.8c1.41,6.73,0.55,13.79-0.61,20.52c-1.23-1.59-2.51-3.13-3.83-4.63
		C256.46,240.15,259.92,235.19,261.01,229.8z M209.89,318.35c-7.73-6.55-15.9-12.55-23.93-18.7c4.6-2.6,6.72-7.56,9.06-12.01
		c1.01,0.63,2.06,1.23,3.12,1.8c0.66-2.14,1.35-4.25,1.95-6.39c0.32,5.89,4.07,10.56,6.85,15.49c4.35,7.33,8.99,14.47,13.79,21.52
		C217.22,318.4,213.76,316.14,209.89,318.35z"/>
</g>
</svg>
