<?xml version="1.0" encoding="utf-8"?>
<!-- Generator: Adobe Illustrator 22.0.0, SVG Export Plug-In . SVG Version: 6.00 Build 0)  -->
<svg version="1.1" id="Слой_1" xmlns="http://www.w3.org/2000/svg" xmlns:xlink="http://www.w3.org/1999/xlink" x="0px" y="0px"
	 viewBox="0 0 48 48" style="enable-background:new 0 0 48 48;" xml:space="preserve">
<style type="text/css">
	.st0{fill:#FFFFFF;}
</style>
<g id="_x23_ffffffff">
	<path class="st0" d="M12.2,2.7h25.2c5,0.2,9.4,4.5,9.6,9.5v25.3c-0.2,5-4.5,9.3-9.5,9.5H12.2c-5-0.2-9.3-4.5-9.5-9.5V12.2
		C2.9,7.2,7.2,2.9,12.2,2.7 M10.5,15c0.5,0.8,1.2,1.4,1.9,2c3.7,3.7,7.4,7.4,11.1,11.2c0.9,0.4,1.8,0.4,2.7,0
		c4.1-4.2,8.3-8.3,12.5-12.5c0.1-0.2,0.4-0.5,0.6-0.7C29.6,15,20,15,10.5,15 M9.8,15.7c0,6.1,0,12.1,0,18.2c2.8-2.5,5.3-5.3,8-7.9
		c0.4-0.5,1.1-0.8,1.1-1.5C15.8,21.7,13,18.5,9.8,15.7 M30.8,24.6c0,0.1,0.1,0.3,0.1,0.5c3,3,5.9,6.1,9,8.9c0-6.1,0-12.1,0-18.2
		C36.7,18.5,33.9,21.7,30.8,24.6 M19.3,25.6c-2.7,2.6-5.3,5.3-8,7.9c-0.3,0.3-0.7,0.7-0.9,1.1c9.6,0,19.2,0,28.7,0
		c-2.5-2.8-5.3-5.3-7.9-8c-0.5-0.4-0.8-1.1-1.5-1.1c-1.3,1.3-2.5,2.8-4.1,3.8c-0.6,0-1.3,0-1.9,0c-1.6-0.9-2.7-2.5-4.1-3.8
		C19.7,25.6,19.5,25.6,19.3,25.6z"/>
</g>
</svg>
