<?xml version="1.0" encoding="utf-8"?>
<!-- Generator: Adobe Illustrator 22.0.0, SVG Export Plug-In . SVG Version: 6.00 Build 0)  -->
<svg version="1.1" id="Слой_1" xmlns="http://www.w3.org/2000/svg" xmlns:xlink="http://www.w3.org/1999/xlink" x="0px" y="0px"
	 viewBox="0 0 48 48" style="enable-background:new 0 0 48 48;" xml:space="preserve">
<style type="text/css">
	.st0{fill:#FFFFFF;}
</style>
<g id="_x23_ffffffff">
	<path class="st0" d="M10.7,1H37c5.2,0.2,9.7,4.7,9.9,9.9v26.3c-0.2,5.2-4.7,9.7-9.9,9.8H10.7c-5.2-0.2-9.7-4.7-9.9-9.9V10.9
		C1.1,5.7,5.5,1.2,10.7,1 M9.4,11.9c-1,1.8,0,3.8,0.4,5.6c0.7,1.5,1.2,3,2.2,4.3c1,1.9,2.4,3.5,3.7,5.2c2.9,2.8,5.6,5.9,9.1,8
		c0.4,0.3,0.8,0.5,1.2,0.8c2.4,1.5,5.2,2.6,8,3c1.8-0.1,3.5-1.3,4.2-2.9c0.2-0.6,0.5-1.3,0.9-1.8c-0.1-0.5-0.4-1-0.8-1.3
		c-1.1-0.7-2.3-1.4-3.4-2.2c-1.3-0.6-2.3-1.6-3.7-2.1c-0.5,0.2-0.9,0.5-1.3,0.7c-1.2,0.5-2.2,1.5-3.6,1.3c-3.5-2.5-6.6-5.6-9.1-9.1
		c-0.3-1.5,0.8-2.7,1.5-3.9c0.1-0.4,0.6-0.8,0.4-1.3c-0.5-1.2-1.4-2.2-2-3.4c-1-1.3-1.6-3-2.9-4.1C12.3,8.9,10.4,10.2,9.4,11.9z"/>
</g>
</svg>
